# xmcd CD database file
#
# Track frame offsets:
#	150
#	29188
#	50643
#	65826
#	87504
#	109125
#	124314
#	139071
#	158694
#
# Disc length: 2353 seconds
#
# Revision: 0
# Processed by: cddbd v1.5.2PL0 Copyright (c) Steve Scherf et al.
# Submitted via: CDex 1.70beta3
#
DISCID=89092f09
DTITLE=Mary Lou Williams - Nite Life [CD2]
DYEAR=1971
DGENRE=Jazz
TTITLE0=What's Your Story, Morning Glory? #2
TTITLE1=Little Joe From Chicago #2
TTITLE2=What's Your Story, Morning Glory? - Little Joe From Chicago
TTITLE3=The Scarlet Creeper
TTITLE4=Scratchin' In The Gravel
TTITLE5=Elite Syncopations
TTITLE6=Pleasant Moments (A Ragtime Waltz)
TTITLE7=Pineapple Rag
TTITLE8=My Mama Pinned A Rose On Me - Fandangle
EXTD=YEAR: 1971
EXTT0=
EXTT1=
EXTT2=
EXTT3=
EXTT4=
EXTT5=
EXTT6=
EXTT7=
EXTT8=
PLAYORDER=
